<?xml version="1.0" encoding="UTF-8" standalone="no"?>
<!-- Created with Inkscape (http://www.inkscape.org/) -->

<svg
   version="1.1"
   id="svg1"
   width="499.99997"
   height="499.99991"
   viewBox="0 0 499.99997 499.99991"
   xmlns="http://www.w3.org/2000/svg"
   xmlns:svg="http://www.w3.org/2000/svg">
  <defs
     id="defs1" />
  <g
     id="g1"
     transform="translate(-154.79756,-246.79189)">
    <g
       id="g3"
       transform="matrix(0.71533911,0,0,0.75567387,31.337143,-54.705519)">
      <rect
         style="fill:#ffffff;fill-opacity:1;fill-rule:evenodd;stroke:#3113bf;stroke-width:1;stroke-miterlimit:0;stroke-dasharray:none;stroke-opacity:0.745419;paint-order:markers stroke fill"
         id="rect11"
         width="676.07892"
         height="442.02554"
         x="211.09024"
         y="26.152552"
         ry="120.65922"
         rx="184.40427"
         transform="matrix(1.0323304,0,0,1.4935053,-44.808647,360.66599)" />
      <path
         style="fill:#905b4f"
         d="m 651.90887,806.53244 c -0.95441,-0.40179 -1.73529,-1.02117 -1.73529,-1.37642 0,-0.55026 -0.13375,-0.55481 -0.9034,-0.0307 -0.49686,0.33834 -0.73852,0.38417 -0.537,0.10185 0.20152,-0.28232 0.0381,-0.61907 -0.36314,-0.74832 -0.48254,-0.15544 -0.68792,-0.85426 -0.60661,-2.06397 0.0676,-1.00592 -0.10042,-1.82895 -0.37341,-1.82895 -0.27298,0 -0.13592,-0.30255 0.30457,-0.67233 1.05057,-0.88192 1.46013,-0.85287 1.03666,0.0735 -0.22925,0.50151 -0.1363,0.63968 0.28372,0.42177 0.3709,-0.19243 0.62467,-0.0509 0.62467,0.34824 0,0.36978 -0.23939,0.79653 -0.53197,0.94833 -0.33388,0.17322 -0.2198,0.78277 0.30633,1.63688 0.91594,1.48689 1.41614,1.39558 1.68793,-0.30815 0.18163,-1.13859 -0.6311,-1.53689 -1.10867,-0.54333 -0.16922,0.35205 -0.28498,0.37244 -0.31146,0.0549 -0.0232,-0.27796 0.32431,-0.76071 0.77222,-1.07276 0.72581,-0.50567 0.71192,-0.67005 -0.1278,-1.5116 -0.51819,-0.51933 -0.72656,-0.79471 -0.46305,-0.61196 0.26352,0.18276 0.81513,0.0982 1.2258,-0.18792 0.41067,-0.28612 0.70466,-0.33479 0.65331,-0.10817 -0.23057,1.01766 0.0758,1.56394 0.70052,1.24889 0.51596,-0.26021 0.51287,-0.17637 -0.0136,0.36943 -0.562,0.58261 -0.53382,0.75345 0.16121,0.97735 0.55322,0.17821 0.71107,0.0931 0.45998,-0.24794 -0.2513,-0.34133 -0.093,-0.42606 0.46201,-0.24728 0.49732,0.1602 0.97218,-0.008 1.15546,-0.40871 0.43005,-0.94077 0.44247,-0.92221 -0.79999,-1.19496 -0.76569,-0.16809 -1.081,-0.56757 -1.01416,-1.28489 0.0534,-0.57253 -0.0645,-1.46001 -0.26189,-1.97219 -0.48307,-1.25347 -2.624,-1.13929 -2.85114,0.15205 -0.10845,0.61655 -0.52473,0.92078 -1.20135,0.878 -0.56948,-0.036 -1.03541,-0.13192 -1.03541,-0.21312 0,-0.21416 1.19099,-1.40325 2.24188,-2.2383 0.49886,-0.39641 0.76208,-0.91763 0.58492,-1.15827 -0.19214,-0.26097 -0.0401,-0.2912 0.37681,-0.0749 0.46808,0.24285 0.57021,0.18777 0.30921,-0.16675 -0.21435,-0.29114 -0.67905,-0.47358 -1.03267,-0.40542 -0.35361,0.0682 -0.63583,-0.0777 -0.62715,-0.32427 0.009,-0.24653 0.18991,-0.3995 0.40273,-0.33995 0.21283,0.0596 0.13314,-0.35935 -0.17707,-0.93089 -0.65973,-1.21551 -2.92505,-1.33148 -2.80636,-0.14367 0.0403,0.40289 -0.16391,0.60951 -0.45372,0.45915 -0.28981,-0.15036 -0.25423,0.15436 0.0791,0.67715 0.33329,0.5228 0.73185,0.95054 0.88568,0.95054 0.15383,0 0.1312,-0.2017 -0.0503,-0.44822 -0.1815,-0.24653 -0.0755,-0.44822 0.23545,-0.44822 0.311,0 0.56545,-0.31446 0.56545,-0.69879 0,-0.38433 0.24419,-0.57209 0.54264,-0.41725 0.29846,0.15484 0.3602,0.51972 0.1372,0.81084 -0.22299,0.29112 -0.4163,1.03355 -0.42958,1.64986 -0.0173,0.80381 -0.32022,1.12356 -1.07158,1.13119 -0.73718,0.007 -0.99386,0.26588 -0.86651,0.87234 0.16298,0.77611 0.0834,0.79731 -0.8009,0.21347 -0.86494,-0.57104 -0.91055,-0.56817 -0.383,0.0241 0.58956,0.6619 0.57594,2.07665 -0.0249,2.58099 -0.16887,0.14176 -0.30703,-0.0784 -0.30703,-0.48929 0,-0.93501 -0.56943,-0.94743 -1.90021,-0.0414 -1.0105,0.68794 -1.00637,0.70021 0.16492,0.49018 0.66074,-0.11847 1.20135,-0.0326 1.20135,0.19085 0,0.22344 -0.27385,0.40626 -0.60856,0.40626 -0.3347,0 -0.92343,0.35297 -1.30828,0.78438 -0.6288,0.70488 -0.67066,0.67081 -0.41299,-0.33616 0.22571,-0.8821 0.16499,-0.97748 -0.28535,-0.44822 -0.31464,0.36978 -0.57576,0.46054 -0.58025,0.2017 -0.005,-0.25885 0.29216,-0.73011 0.65924,-1.04725 0.53974,-0.46631 0.41206,-0.54777 -0.66742,-0.42581 -1.35929,0.15357 -2.11939,0.6899 -2.11939,1.49547 0,0.24652 0.23291,0.14567 0.51758,-0.22411 0.28467,-0.36979 0.52127,-0.48652 0.52576,-0.25941 0.005,0.22711 -0.3626,0.75687 -0.81577,1.17723 -0.73871,0.68523 -0.73937,0.79155 -0.006,1.02766 0.44977,0.14489 0.76038,0.0438 0.69047,-0.22476 -0.0699,-0.26846 0.23333,-0.57911 0.67382,-0.69032 0.47504,-0.11993 0.58366,-0.0516 0.26697,0.16808 -0.92945,0.64459 -0.92509,1.62676 0.006,1.32686 0.52227,-0.16824 0.7159,-0.0912 0.50176,0.19968 -0.19179,0.2605 -0.66724,0.37103 -1.05656,0.24562 -0.38932,-0.12542 -0.96188,0.0289 -1.27236,0.34296 -0.4128,0.41754 -0.35786,0.57098 0.20445,0.57098 0.42291,0 0.62085,-0.21851 0.43985,-0.48557 -0.18099,-0.26707 -0.12343,-0.32846 0.12793,-0.13643 0.25136,0.19202 0.50671,0.63337 0.56745,0.98077 0.084,0.48057 -0.18325,0.53791 -1.11741,0.23976 -0.67532,-0.21554 -1.40423,-0.25349 -1.61981,-0.0843 -0.21558,0.16915 -0.0735,-0.13133 0.31579,-0.66774 0.55453,-0.76413 0.57281,-1.22393 0.0844,-2.12374 -0.34284,-0.63165 -0.48394,-1.45339 -0.31357,-1.82609 0.17037,-0.37271 0.0438,-0.67765 -0.2813,-0.67765 -0.32508,0 -0.59106,0.2017 -0.59106,0.44823 0,0.24652 -0.30034,0.44151 -0.66742,0.4333 -0.36708,-0.008 -0.0928,-0.41664 0.60957,-0.90765 0.70235,-0.491 1.12863,-1.01728 0.94729,-1.16951 -0.18133,-0.15223 -0.66403,-0.0439 -1.07266,0.24085 -0.57245,0.39882 -0.89923,0.35956 -1.42383,-0.17107 -0.37448,-0.37878 -0.52649,-0.81829 -0.33781,-0.97668 0.18868,-0.15839 0.34305,-0.028 0.34305,0.28983 0,0.43908 0.17604,0.45516 0.73323,0.067 0.89014,-0.62016 2.47038,-0.18957 2.47038,0.67313 0,0.72895 0.48462,0.78225 1.60181,0.17616 0.53393,-0.28966 0.57843,-0.43678 0.13348,-0.44136 -0.43911,-0.005 -0.34779,-0.28784 0.26697,-0.82828 0.51391,-0.45178 1.29479,-0.78046 1.73529,-0.73039 1.28275,0.14581 1.89194,-0.36802 0.813,-0.68574 -1.40584,-0.41397 -1.57776,-2.10942 -0.27332,-2.69547 0.72203,-0.32439 1.06213,-0.32861 1.06213,-0.0132 0,0.2552 0.35286,0.464 0.78414,0.464 0.47766,0 0.66402,-0.26279 0.47681,-0.67234 -0.17906,-0.39171 -0.005,-0.67802 0.41721,-0.68596 0.43515,-0.008 0.30938,-0.21582 -0.31489,-0.51984 -0.78909,-0.3843 -1.09191,-0.37404 -1.25735,0.0426 -0.11985,0.30185 -0.7934,0.73249 -1.49676,0.95697 -0.768,0.24512 -1.27884,0.77068 -1.27884,1.3157 0,0.49915 -0.1802,0.9075 -0.40045,0.90745 -0.53309,-1.3e-4 -0.50249,-2.9771 0.0352,-3.42851 0.23191,-0.19468 0.26311,-0.007 0.0693,0.41677 -0.2024,0.44277 -0.10081,0.77072 0.23874,0.77072 0.32509,0 0.59107,-0.39149 0.59107,-0.86999 0,-1.0559 0.84768,-1.58459 1.38044,-0.86095 0.25757,0.34986 0.15338,0.40391 -0.31257,0.16217 -0.49142,-0.25496 -0.57098,-0.18882 -0.26797,0.22276 0.34266,0.46543 0.5603,0.43689 1.06216,-0.13926 0.45762,-0.52537 0.79211,-0.58956 1.21634,-0.23343 0.42423,0.35612 0.5391,0.25939 0.41773,-0.35177 -0.0921,-0.46363 -0.43583,-0.79254 -0.7639,-0.73091 -0.32807,0.0616 -0.59649,-0.11123 -0.59649,-0.38412 0,-0.2729 0.38005,-0.37375 0.84457,-0.22411 0.46451,0.14963 1.0427,0.27206 1.28485,0.27206 0.24215,0 0.30479,0.43494 0.13919,0.96653 -0.18939,0.60799 -0.0947,0.85943 0.25539,0.67782 0.61145,-0.31723 1.23172,-2.98901 0.69392,-2.98901 -0.18407,0 -0.67148,0.25212 -1.08313,0.56027 -0.63804,0.47763 -0.64267,0.44307 -0.0314,-0.23423 0.44423,-0.49222 1.09565,-0.69363 1.71217,-0.52937 0.63045,0.16798 1.11291,0.007 1.31658,-0.4381 0.1768,-0.38678 0.56544,-0.70324 0.86365,-0.70324 0.32922,0 0.29802,0.24697 -0.0794,0.62875 -0.44257,0.44765 -0.4526,0.67603 -0.0348,0.79294 0.32272,0.0903 0.42771,0.51216 0.2333,0.93745 -0.19441,0.4253 -0.60569,0.64241 -0.91396,0.48247 -0.33008,-0.17125 -0.40166,-0.0751 -0.17412,0.234 0.2125,0.28863 0.6261,0.40041 0.91911,0.24839 0.29301,-0.15203 0.46686,-0.004 0.38632,0.32885 -0.0805,0.33289 0.0276,1.15815 0.24025,1.8339 0.38399,1.22014 1.37427,1.43879 2.89877,0.64005 0.4579,-0.23991 0.55988,-0.1246 0.33155,0.37489 -0.18742,0.41001 -0.67137,0.61133 -1.1212,0.46642 -0.55189,-0.17778 -0.69538,-0.0448 -0.47404,0.43943 0.18183,0.39777 -0.0208,0.80335 -0.47448,0.94948 -0.43555,0.14031 -0.79191,0.45842 -0.79191,0.70692 0,0.2485 0.59223,0.12607 1.31606,-0.27207 0.72383,-0.39813 1.50471,-0.72079 1.73529,-0.71702 0.23058,0.004 0.10752,0.17286 -0.27346,0.37573 -0.56311,0.29987 -0.55616,0.46399 0.0371,0.87735 0.59544,0.41484 0.71281,0.22193 0.63738,-1.04765 -0.0991,-1.66711 0.9528,-2.91139 1.65493,-1.95769 0.26841,0.36458 0.17062,0.42179 -0.30193,0.17662 -0.46595,-0.24174 -0.57014,-0.18769 -0.31257,0.16217 0.2125,0.28864 0.63313,0.39676 0.93473,0.24028 0.32297,-0.16756 0.45937,0.0597 0.33185,0.55297 -0.11909,0.46061 -0.56266,0.77024 -0.98572,0.68806 -0.42305,-0.0822 -0.59744,-0.005 -0.38753,0.17099 0.62251,0.52257 -0.65931,2.08789 -1.49048,1.82014 -1.13628,-0.36604 -0.91673,0.36912 0.3997,1.33842 0.6378,0.46962 1.00489,0.63006 0.81574,0.35654 -0.36741,-0.53131 0.71302,-2.855 1.33019,-2.86085 0.80897,-0.008 0.90782,0.81574 0.12809,1.06692 -0.46513,0.14984 -0.66274,0.49738 -0.44838,0.78856 0.25214,0.34247 0.14866,0.3989 -0.30239,0.16488 -0.45705,-0.23713 -0.60335,-0.14812 -0.43872,0.26691 0.13583,0.34247 0.77529,0.64586 1.421,0.67421 2.23019,0.0979 1.7579,0.54725 -0.5108,0.48599 -1.40507,-0.0379 -2.36086,0.15338 -2.49854,0.50013 -0.16063,0.40451 0.34403,0.50913 1.80427,0.37404 1.71946,-0.15906 1.88928,-0.10283 1.11842,0.37035 -0.49987,0.30684 -0.90886,0.68692 -0.90886,0.84464 0,0.56421 0.88755,0.2703 2.13874,-0.70824 1.27956,-1.00072 2.93646,-1.52695 2.36536,-0.75124 -0.16852,0.22891 -0.53007,0.30015 -0.80345,0.15831 -0.27337,-0.14183 -0.49704,-0.0658 -0.49704,0.16885 0,0.85144 1.42743,0.85996 2.05804,0.0123 0.35561,-0.47801 0.87898,-0.74853 1.16304,-0.60116 0.28406,0.14738 0.51647,0.0544 0.51647,-0.20671 0,-0.26107 -0.30034,-0.47777 -0.66742,-0.48154 -0.44495,-0.005 -0.40045,-0.1517 0.13348,-0.44136 1.27761,-0.6931 1.69581,-0.52279 1.37575,0.56028 -0.16391,0.55467 -0.15958,0.75511 0.01,0.44543 0.1692,-0.30969 0.52739,-0.44906 0.79597,-0.30972 0.73314,0.38037 0.58758,-0.41071 -0.25318,-1.37593 -0.40782,-0.4682 -0.60726,-1.14494 -0.44319,-1.50386 0.19202,-0.42008 0.0757,-0.53712 -0.32637,-0.32849 -0.34357,0.17825 -0.62467,0.12239 -0.62467,-0.12413 0,-1.02038 1.10765,-0.91987 1.58959,0.14423 0.59757,1.31942 1.04553,1.51313 0.83976,0.36314 -0.0772,-0.43141 -0.0396,-0.54344 0.0834,-0.24895 0.12308,0.29448 0.5722,0.42319 0.99804,0.28602 0.42584,-0.13718 1.12854,-0.003 1.56155,0.2991 0.43302,0.30168 1.16325,0.4274 1.62274,0.27939 0.48053,-0.1548 0.69686,-0.0809 0.50923,0.17396 -0.17942,0.2437 -0.65826,0.44309 -1.06409,0.44309 -0.40584,0 -0.90932,0.23286 -1.11886,0.51747 -0.23604,0.32062 -0.14647,0.39581 0.23545,0.19766 0.67658,-0.35102 0.79563,0.16422 0.29234,1.26521 -0.17825,0.38994 -0.67297,0.70899 -1.09938,0.70899 -0.42641,0 -0.64356,0.17892 -0.48255,0.39761 0.38968,0.5293 -1.46348,0.39244 -1.92231,-0.14196 -0.4756,-0.55394 -2.04495,-0.73049 -2.04495,-0.23006 0,0.21697 -0.3294,0.28838 -0.732,0.15869 -0.4026,-0.12969 -0.87405,0.0749 -1.04766,0.45473 -0.17424,0.38117 -0.66608,0.57766 -1.09781,0.43858 -0.57888,-0.18648 -0.70672,-0.01 -0.49188,0.67989 0.15966,0.51251 0.47451,0.93185 0.69967,0.93185 0.22517,0 0.52458,0.36978 0.66537,0.82173 0.1488,0.47765 -0.0274,0.82174 -0.42075,0.82174 -0.37221,0 -0.5657,-0.2429 -0.42999,-0.53979 0.13571,-0.29688 -0.12342,-0.65903 -0.57584,-0.80477 -0.45242,-0.14574 -0.69012,-0.55476 -0.52822,-0.90894 0.40973,-0.89633 -0.7274,-1.37547 -1.6835,-0.70935 -0.43473,0.30287 -0.94106,0.42422 -1.12517,0.26966 -0.33805,-0.28378 -1.72678,0.98789 -1.7582,1.60999 -0.009,0.18489 0.46356,0.33617 1.05089,0.33617 0.61122,0 1.06787,0.29881 1.06787,0.69878 0,0.38433 0.23535,0.57668 0.523,0.42744 0.71268,-0.36975 -0.5632,-2.04544 -1.29729,-1.70381 -0.3083,0.14349 -0.25021,-0.0191 0.1291,-0.36141 0.58791,-0.53048 0.75717,-0.53058 1.14728,-7e-4 0.36284,0.49285 0.50095,0.44566 0.66678,-0.22785 0.18607,-0.75571 0.24546,-0.73809 0.53821,0.15967 0.197,0.6041 0.12042,0.90087 -0.19078,0.73941 -0.28592,-0.14834 -0.46525,0.003 -0.39852,0.33554 0.13022,0.64954 -0.92701,3.07048 -1.34088,3.07048 -0.13724,0 -0.15717,-0.40259 -0.0443,-0.89463 0.22094,-0.96304 -1.12384,-1.8168 -2.30408,-1.4628 -0.40663,0.12197 -0.83811,-0.22392 -1.02409,-0.82095 -0.30032,-0.96408 -0.34529,-0.97455 -0.68579,-0.15968 -0.23388,0.55971 -0.0583,1.07324 0.49016,1.43381 0.77825,0.51163 0.77594,0.53895 -0.0258,0.30602 -0.4842,-0.14068 -1.06194,-0.009 -1.28385,0.29226 -0.25888,0.35164 -0.18121,0.43272 0.21673,0.22626 0.34462,-0.1788 0.75825,-0.0198 0.93089,0.35787 0.42923,0.939 2.34381,-0.0601 1.99089,-1.03888 -0.22062,-0.61192 -0.18546,-0.61615 0.26759,-0.0322 0.28687,0.36979 0.60535,1.17161 0.70773,1.78184 0.2322,1.38405 -0.79162,1.57216 -3.15095,0.57893 z"
         id="path7" />
      <path
         style="fill:#6b2d1d"
         d="m 539.32224,870.48555 c -6.95824,-0.76215 -10.46939,-2.16836 -11.72797,-4.69702 -2.73727,-5.49952 6.08581,-12.64089 30.36817,-24.5799 4.34595,-2.13679 8.81467,-4.36887 9.93049,-4.96018 3.10125,-1.64345 15.24942,-6.67878 21.46558,-8.89732 12.79531,-4.56663 25.15207,-7.16383 34.38527,-7.22725 5.07356,-0.0349 6.49529,0.13083 10.44129,1.21682 8.76133,2.41121 12.7849,6.38248 12.7849,12.61871 0,5.62359 -2.98033,10.94105 -8.81526,15.72808 -2.50897,2.05838 -14.01959,8.64087 -16.51217,9.44269 -0.86725,0.27898 -0.7545,-0.0587 0.70139,-2.10059 5.6012,-7.85572 5.41465,-11.24217 -0.76364,-13.86265 -2.32212,-0.98491 -3.28824,-1.11548 -7.98128,-1.07866 -17.40239,0.13657 -60.95105,14.64121 -68.32483,22.75678 -1.48389,1.63317 -3.12167,5.3745 -2.55935,5.84655 0.17366,0.14578 0.21563,0.23948 0.0933,0.20822 -0.12236,-0.0313 -1.691,-0.21769 -3.48586,-0.41428 z M 402.59797,812.77896 c -11.30287,-3.38649 -19.09777,-17.7575 -17.79696,-32.81125 0.20237,-2.34195 0.40681,-3.72275 0.45432,-3.06843 0.14312,1.97143 2.5656,7.46616 4.45364,10.10186 2.44121,3.40792 6.72706,6.60753 10.11672,7.55266 9.41667,2.62562 21.47701,-4.27352 23.24028,-13.29463 0.67947,-3.47628 1.14338,-0.38021 1.18329,7.89708 0.0602,12.49595 -0.93165,16.15604 -5.51529,20.35143 -2.66026,2.43492 -5.42395,3.50571 -9.91535,3.84169 -2.61512,0.19563 -4.12642,0.0571 -6.22065,-0.57041 z m 291.06561,-19.96339 c -0.66214,-2.21468 -4.50392,-4.40454 -14.58115,-8.31144 -5.32795,-2.06562 -9.68718,-3.93405 -9.68718,-4.15206 0,-0.21801 0.90101,-0.0598 2.00226,0.35153 4.22745,1.5791 9.52176,2.1533 15.07983,1.63548 7.50855,-0.69952 12.30365,-3.08776 15.11054,-7.52591 1.69549,-2.68085 1.53761,-7.93072 -0.36325,-12.07911 -3.59489,-7.84541 -10.96848,-12.50315 -29.60478,-18.70067 -8.34844,-2.77629 -9.35726,-3.21652 -11.31823,-4.93907 -2.09707,-1.84212 -2.01858,-3.08814 0.30228,-4.79876 1.4219,-1.04803 2.40157,-1.3911 3.97248,-1.3911 2.92727,0 9.30282,3.71909 20.02048,11.67868 9.2169,6.84503 11.24184,7.95395 15.25246,8.35269 3.33461,0.33154 5.00271,-0.52472 6.57089,-3.37292 1.15141,-2.09125 1.15141,-2.09125 1.3047,2.31175 0.12691,3.64518 -0.1184,5.34239 -1.42526,9.86087 -0.86821,3.00183 -1.8568,7.15322 -2.19689,9.22531 -0.34008,2.07209 -1.21506,5.50098 -1.9444,7.61976 -1.3758,3.99681 -5.3261,11.84759 -7.11014,14.13061 -1.02404,1.31046 -1.02404,1.31046 -1.38464,0.10436 z m -86.06096,-24.59656 c -2.06743,-0.83756 -3.56952,-4.17043 -3.59336,-7.97304 -0.0211,-3.36166 -0.0211,-3.36166 1.9294,-3.49818 2.58671,-0.18105 5.2004,1.71155 6.47005,4.68503 1.30994,3.06786 1.19604,4.90007 -0.38723,6.22918 -1.40673,1.1809 -2.52951,1.32243 -4.41886,0.55701 z M 464.63108,742.36882 c -5.82622,-1.2729 -8.9237,-4.59544 -8.12689,-8.71737 0.78296,-4.05027 10.38063,-13.57014 18.8644,-18.71148 11.11307,-6.73475 19.55086,-7.97936 21.91358,-3.23235 0.60787,1.22131 0.77407,2.60295 0.59495,4.94599 -0.42114,5.50886 -2.28506,7.97273 -12.67925,16.76038 -7.63592,6.45572 -9.17867,7.5535 -11.48989,8.17594 -3.39809,0.91513 -7.02771,1.22659 -9.0769,0.77889 z m 19.18709,-126.85141 c 0.16248,-0.22069 -0.0235,-0.50399 -0.4133,-0.62956 -1.32534,-0.42693 -2.74935,-5.23774 -2.7464,-9.27828 0.003,-3.98374 0.98808,-7.39951 1.98497,-6.8823 0.343,0.17795 0.41797,0.0864 0.18657,-0.22794 -0.36616,-0.49735 1.76154,-3.12523 4.27074,-5.2747 2.20637,-1.89008 6.19824,-4.19904 6.75771,-3.90878 0.31625,0.16408 0.41715,0.0873 0.22614,-0.17219 -0.48555,-0.65951 2.0604,-1.95517 3.22204,-1.63972 0.71722,0.19477 0.77966,0.15161 0.2451,-0.16942 -0.90192,-0.54166 9.62773,-5.16822 15.07384,-6.6232 2.02283,-0.54042 3.34432,-1.08185 2.93664,-1.20318 -0.40767,-0.12133 1.30108,-0.36842 3.79722,-0.5491 5.61867,-0.4067 16.0064,0.31905 21.42659,1.49698 8.15083,1.77136 17.38149,6.77303 19.163,10.38355 0.37446,0.7589 0.55477,2.44914 0.42363,3.97111 -0.53842,6.24864 -6.06413,9.19349 -18.8549,10.04848 -1.76199,0.11778 -5.84659,0.52871 -9.0769,0.91317 -3.23031,0.38447 -8.77606,1.01669 -12.32389,1.40493 -8.49923,0.93008 -21.51503,3.95064 -32.14012,7.45872 -4.24725,1.40231 -4.59669,1.47638 -4.15868,0.88143 z m 42.5685,-10.14515 c 10.52626,-1.36799 13.40825,-2.02283 16.44998,-3.73774 8.20436,-4.62556 5.66612,-13.49079 -5.02805,-17.56134 -6.22218,-2.36837 -13.41141,-2.7308 -20.5849,-1.03774 -8.56558,2.02161 -17.3107,9.77146 -16.29442,14.43998 1.11563,5.12489 7.06713,8.96159 13.97778,9.01092 1.51566,0.0108 6.68148,-0.49051 11.47961,-1.11408 z m -112.59955,6.95202 c -4.043,-0.75556 -6.24184,-3.23251 -6.08893,-6.85907 0.12602,-2.98897 1.74415,-5.41132 5.83655,-8.73732 2.70944,-2.20205 4.79767,-3.36302 9.40282,-5.22761 7.28396,-2.94923 10.2968,-3.57925 17.13445,-3.58301 4.85995,-0.003 5.5659,0.10756 7.83342,1.22309 8.45485,4.15946 0.71803,13.61462 -16.42488,20.07282 -6.69667,2.52282 -13.98438,3.80425 -17.69343,3.1111 z"
         id="path6" />
      <path
         style="fill:#13443c"
         d="m 527.63544,872.89962 c -2.33793,-1.037 -3.46744,-1.97092 -4.51819,-3.73584 -2.49693,-4.19401 -1.74368,-7.67 2.65731,-12.26251 3.12714,-3.26323 10.79669,-8.99704 11.37974,-8.50758 0.17209,0.14446 0.74372,0.10072 1.2703,-0.0972 0.52658,-0.19791 1.38017,-0.39709 1.89688,-0.4426 0.73608,-0.0648 0.80862,0.0496 0.33507,0.52858 -0.33241,0.33623 -0.92996,0.61134 -1.32787,0.61134 -1.141,0 -12.21801,9.43738 -13.43988,11.45049 -1.80575,2.9751 -1.99639,4.82805 -0.72268,7.0239 0.61244,1.05583 1.82199,2.3151 2.68789,2.79838 0.8659,0.48328 1.45606,1.03938 1.31147,1.23577 -0.14459,0.1964 0.11275,0.47809 0.57186,0.62598 0.45911,0.1479 0.83474,0.44269 0.83474,0.6551 0,0.21241 -0.39982,0.2574 -0.88849,0.1 -0.59741,-0.19245 -0.76201,-0.11442 -0.50242,0.23817 0.48338,0.65658 0.41185,0.64631 -1.54573,-0.22198 z m 19.88909,-2.71221 c -0.80758,-0.1027 -1.46832,-0.38693 -1.46832,-0.63163 0,-0.2447 0.27739,-0.30099 0.61643,-0.12509 0.39257,0.20368 0.47104,0.12234 0.21608,-0.22397 -0.64049,-0.86997 2.16697,-3.82738 5.4782,-5.7708 11.30312,-6.63399 46.40143,-17.7963 59.0302,-18.77336 4.22171,-0.32662 7.28741,0.39335 9.65432,2.26728 2.40159,1.90139 2.48233,3.6497 0.31502,6.8218 -3.20982,4.69795 -9.25817,7.90727 -20.98565,11.13518 -7.4862,2.06054 -12.87836,2.96115 -24.15726,4.03482 -15.03888,1.43159 -24.21318,1.83622 -28.69902,1.26577 z M 399.60148,785.55568 c -3.03087,-0.93379 -4.88498,-2.20384 -6.67804,-4.5744 -2.58498,-3.41755 -3.31146,-6.24793 -3.30099,-12.86073 0.0217,-13.69731 4.82991,-20.82815 14.06776,-20.86316 5.46798,-0.0207 9.90892,3.36773 12.05371,9.19702 2.84311,7.72724 3.48039,20.08496 1.22571,23.76799 -1.46898,2.39958 -4.88494,4.9467 -7.42957,5.53987 -2.7776,0.64747 -7.48404,0.54964 -9.93858,-0.20659 z m 275.3321,-7.79366 c -8.28639,-1.8801 -14.05911,-5.46027 -17.05018,-10.57434 -1.43644,-2.45599 -1.56957,-3.0858 -1.56957,-7.42545 0,-4.48879 0.0855,-4.85738 1.60181,-6.90685 2.04788,-2.76792 4.72865,-3.9678 9.34387,-4.18218 10.45306,-0.48557 22.18589,4.96774 26.64601,12.38482 3.90313,6.49082 2.02542,13.52536 -4.34706,16.28558 -3.21146,1.39103 -9.5401,1.5721 -14.62488,0.41842 z m 11.75875,-3.9842 c 2.66847,-1.30755 3.72157,-2.94354 3.96558,-6.1605 0.28605,-3.77106 -0.87654,-6.39567 -4.12397,-9.3101 -5.31674,-4.77156 -16.39412,-7.5261 -22.14885,-5.50761 -4.49876,1.57794 -5.9871,7.20607 -3.2564,12.31405 1.53026,2.86248 5.54432,6.4931 8.68738,7.85752 4.88709,2.12151 13.36582,2.52678 16.87626,0.80664 z M 459.09922,754.78339 c -4.18421,-0.96917 -7.44961,-3.66938 -8.63564,-7.14094 -0.61299,-1.79426 0.21735,-6.99971 1.51505,-9.49789 0.94914,-1.82716 0.94914,-1.82716 1.94129,0.38831 1.0419,2.32656 2.63622,4.50517 4.01737,5.48966 3.34695,2.38574 10.04862,3.06514 14.29032,1.44873 1.24145,-0.47309 2.38524,-0.68622 2.54176,-0.47362 0.4216,0.57265 -6.90482,7.85387 -8.92868,8.87359 -2.24263,1.12995 -4.48898,1.4339 -6.74147,0.91216 z m -14.38519,-26.6451 c -1.24339,-1.11738 -0.83704,-2.69726 1.71145,-6.654 18.00955,-27.96136 59.86432,-64.72408 92.55436,-81.29419 11.50473,-5.83158 21.94773,-8.83672 36.16379,-10.40672 7.02155,-0.77545 23.46101,-0.29678 31.51423,0.9176 14.60047,2.20168 20.51491,3.76463 31.50218,8.32478 12.22732,5.07481 23.71538,12.72791 31.92365,21.26683 9.20867,9.57963 21.20566,27.5253 23.56527,35.25008 1.18739,3.88722 1.11311,6.28083 -0.21339,6.87679 -1.35537,0.60892 -10.01371,-1.71045 -26.71,-7.15499 -6.60745,-2.15465 -12.97462,-4.17494 -14.14928,-4.48954 -10.71952,-2.87091 -26.17661,-9.35282 -38.13705,-15.9927 -9.26941,-5.14595 -22.27449,-11.21287 -22.9037,-10.68467 -0.18198,0.15277 -0.0786,0.41807 0.22964,0.58956 0.30828,0.17149 1.62281,1.04065 2.92118,1.93147 2.25709,1.54862 12.4545,7.54792 20.47475,12.04562 5.20354,2.9181 15.38076,7.55019 22.73196,10.34627 6.21699,2.36468 19.03534,6.41325 44.97629,14.20538 11.62996,3.4934 14.16382,4.4004 13.67489,4.89495 -0.77228,0.78116 -2.76332,0.48667 -10.33004,-1.52788 -10.37899,-2.76329 -41.45807,-12.23586 -47.52024,-14.48367 -5.39577,-2.00071 -19.30318,-8.08523 -30.00809,-13.1286 -9.80812,-4.62086 -19.52287,-8.40652 -27.34602,-10.65624 -24.78778,-7.12825 -53.01037,-1.61372 -85.74054,16.7532 -9.22011,5.17398 -18.58311,11.80227 -27.79315,19.67545 -9.33883,7.98327 -11.51288,10.27916 -16.79882,17.74024 -2.1395,3.0199 -4.10826,5.49072 -4.37503,5.49072 -0.26677,0 -0.36128,0.16808 -0.21004,0.37351 0.44485,0.60424 -0.99996,0.42725 -1.70825,-0.20925 z M 664.62527,685.7994 c 4.91513,-2.27609 6.22419,-7.46123 3.22658,-12.78038 -2.3476,-4.16572 -7.87376,-8.51579 -14.35286,-11.29826 -12.86779,-5.52611 -22.80092,-6.28636 -26.77142,-2.04901 -0.87646,0.93536 -1.11438,1.82432 -1.11203,4.155 0.004,3.59873 0.61838,5.58732 2.99515,9.68837 3.32062,5.72966 8.15272,9.3706 15.54006,11.70929 5.22082,1.65282 7.27038,1.93427 13.01556,1.78733 4.22771,-0.10814 5.53238,-0.32019 7.45896,-1.21234 z m -47.60014,-37.59809 c 5.22802,-1.25867 6.46867,-6.24166 2.40365,-9.65411 -5.22482,-4.38607 -20.19334,-7.55018 -28.68763,-6.0641 -6.66031,1.16522 -8.76039,4.89619 -4.81794,8.55948 3.15711,2.93356 7.68365,4.79601 16.21115,6.67011 4.3597,0.95813 11.91139,1.20593 14.89077,0.48862 z m -212.90555,6.49994 c -4.58083,-1.20964 -6.46716,-3.89039 -6.48565,-9.21705 -0.018,-5.19411 0.91147,-6.36541 9.86608,-12.43285 8.79565,-5.95973 12.16568,-7.73724 20.92991,-11.03938 10.48441,-3.95027 17.17066,-5.43292 20.15918,-4.47021 1.36854,0.44085 2.42663,2.62379 2.42663,5.00638 0,2.93178 -2.23983,6.6286 -6.63766,10.95541 -2.98936,2.94108 -7.63356,6.44229 -6.49617,4.89738 0.22406,-0.30433 1.21636,-1.58451 2.20512,-2.84486 6.36851,-8.11772 0.58684,-13.70421 -11.05813,-10.68484 -4.3159,1.11904 -12.11233,5.40659 -15.81797,8.69888 -5.60499,4.97977 -7.31314,11.19189 -4.27437,15.54475 1.87491,2.68571 3.19048,3.60162 6.04811,4.21072 2.41293,0.51431 2.41293,0.51431 -1.73496,1.07015 -2.28134,0.3057 -4.74856,0.63691 -5.48272,0.73601 -0.73416,0.0991 -2.37549,-0.0946 -3.6474,-0.43049 z m 0.79846,-54.91856 c 3.44371,-3.93953 8.10021,-9.5811 8.81146,-10.67552 0.95705,-1.47262 3.92639,-2.47392 9.01774,-3.04089 2.33512,-0.26003 2.54896,-0.20895 2.31029,0.55188 -0.14466,0.46115 -1.27103,1.24176 -2.50305,1.7347 -4.47517,1.79055 -11.57717,6.13034 -14.86251,9.08197 -1.84891,1.66111 -3.09718,2.71765 -2.77393,2.34786 z"
         id="path5" />
      <path
         style="fill:#0e0f0f"
         d="m 498.80294,914.37686 c -9.80243,-1.0284 -23.81427,-4.88338 -32.39695,-8.91314 -6.87709,-3.22895 -6.81068,-3.14904 -6.26446,-7.53744 0.56196,-4.51481 2.08378,-7.10908 6.35177,-10.82793 5.3401,-4.65302 12.40841,-7.817 18.69548,-8.36864 6.08486,-0.53389 6.62826,-0.25225 20.80536,10.78315 8.16858,6.3584 12.46549,10.53643 14.71048,14.30353 2.12258,3.56167 2.34411,5.6855 0.81292,7.79359 -1.20097,1.65347 -3.05764,2.19276 -9.78472,2.84212 -5.05481,0.48794 -7.70902,0.47249 -12.92988,-0.0752 z m -44.95127,-17.08718 c -5.14016,-4.76564 -10.87531,-13.9306 -13.25285,-21.17847 -0.80867,-2.46521 -1.80114,-5.03023 -2.20549,-5.70003 -0.40435,-0.66981 -2.59521,-2.36598 -4.86858,-3.76929 -2.27337,-1.4033 -4.32554,-2.82185 -4.56038,-3.15233 -0.23484,-0.33048 -0.76182,-0.60088 -1.17108,-0.60088 -0.40925,0 -1.05806,-0.37629 -1.44179,-0.83619 -0.38373,-0.45991 -0.93796,-0.88212 -1.23163,-0.93825 -0.29366,-0.0561 -1.53638,-0.83385 -2.7616,-1.72827 -3.58807,-2.61933 -2.05372,-2.54897 1.85772,0.0852 6.97968,4.70047 11.04671,5.79037 13.4831,3.61328 1.05993,-0.94712 1.3192,-1.7147 1.47617,-4.37016 0.23637,-3.99876 -0.97865,-8.08744 -4.42035,-14.875 -2.80059,-5.52319 -5.17497,-11.21573 -6.35647,-15.23953 -1.07085,-3.64692 -2.11293,-10.50223 -1.80558,-11.87787 0.18344,-0.82102 0.2698,-0.66382 0.32307,0.58812 0.04,0.93976 0.46098,2.70516 0.93553,3.9231 0.47455,1.21793 0.73723,2.61758 0.58373,3.11033 -0.1535,0.49274 -0.11028,0.80832 0.096,0.70128 0.20632,-0.10704 0.81269,1.25415 1.34749,3.02487 1.75791,5.82044 5.61161,13.31913 9.25606,18.01081 3.3444,4.30541 12.06697,12.23221 16.68638,15.16406 1.86877,1.18608 1.86877,1.18608 -2.02877,1.19105 -4.2586,0.005 -5.9711,0.5371 -8.18853,2.54223 -2.72495,2.46406 -3.34646,4.07171 -3.35112,8.66828 -0.007,6.99231 2.08339,9.0917 4.18997,4.20783 3.63815,-8.43463 9.31628,-12.61159 16.54899,-12.17382 5.67503,0.34349 14.95062,4.04978 21.37369,8.54039 1.5805,1.10499 1.5805,1.10499 -1.21391,0.87959 -6.16416,-0.49722 -15.26875,2.51888 -20.46857,6.78067 -4.71775,3.86668 -8.42852,10.92914 -7.71381,14.68118 0.18191,0.95498 0.24965,1.73634 0.15054,1.73634 -0.0991,0 -0.6697,-0.45383 -1.26796,-1.0085 z m 89.53486,-15.40188 c -19.77276,-0.93553 -39.84801,-4.75705 -59.54646,-11.33527 -7.39435,-2.46931 -18.07118,-7.14893 -17.98547,-7.88297 0.0285,-0.24378 2.4078,-0.89647 5.28741,-1.45043 11.76682,-2.26363 14.72259,-2.91999 20.99695,-4.66261 11.5479,-3.20728 26.17199,-9.24523 35.49648,-14.65568 10.28312,-5.96669 22.61674,-15.22548 29.29133,-21.98884 3.7269,-3.77648 12.46801,-13.98789 16.73525,-19.55021 12.68964,-16.54085 20.14469,-33.99868 22.8729,-53.56246 2.08625,-14.96044 3.21316,-18.87744 6.68749,-23.24507 2.59011,-3.25606 5.03814,-4.95834 9.92427,-6.90099 3.42529,-1.36185 4.00965,-1.45165 9.26227,-1.4233 9.76256,0.0527 16.90394,2.72624 23.96746,8.97285 9.7467,8.61947 11.28411,17.38668 5.45589,31.11272 -1.28907,3.03587 -1.31221,2.80002 -0.32987,-3.36167 1.75146,-10.98601 0.79995,-16.30243 -3.99483,-22.3204 -5.02023,-6.30093 -10.72162,-9.5052 -16.82266,-9.45459 -5.52161,0.0458 -8.51169,1.89651 -11.7,7.24175 -2.46695,4.13587 -3.16113,7.34458 -2.80688,12.97412 0.56424,8.96649 3.69528,17.4268 8.57306,23.16507 3.90886,4.59841 8.14597,6.1822 13.18113,4.92696 2.41036,-0.60089 4.0478,-1.77379 6.51355,-4.66563 0.93118,-1.09209 0.93287,-1.08613 0.10509,0.3706 -2.15126,3.78576 -8.2399,7.15672 -11.91836,6.59856 -5.46717,-0.82958 -11.03601,-6.61416 -14.4661,-15.02655 -2.82063,-6.91766 -4.63694,-18.07284 -3.72787,-22.89538 1.37652,-7.30236 8.23686,-14.307 14.01225,-14.307 0.78828,0 1.43323,-0.2017 1.43323,-0.44822 0,-0.24653 -1.14129,-0.44626 -2.53619,-0.44385 -4.85989,0.008 -9.81181,2.84511 -12.33752,7.06757 -4.37494,7.31398 -4.04015,15.26839 1.33093,31.62261 2.79308,8.50453 3.01691,10.16386 0.40334,2.99004 -2.21184,-6.07112 -4.19095,-9.25553 -6.61605,-10.64526 -2.06484,-1.18329 -5.10635,-1.3198 -6.82962,-0.30655 -5.20682,3.06154 -6.63099,19.42639 -2.30945,26.53745 1.4162,2.33034 5.58384,5.38479 7.82992,5.73851 3.90903,0.61562 7.97604,-1.84329 9.53382,-5.76412 0.46866,-1.17959 0.87624,-3.59999 0.90573,-5.37866 0.0536,-3.23394 0.0536,-3.23394 0.75966,-0.53698 1.46313,5.58884 4.464,10.46026 7.16633,11.63335 2.5673,1.11448 5.43053,0.87481 7.96556,-0.66676 2.55089,-1.55121 6.64006,-5.78952 8.6722,-8.98847 0.76514,-1.20449 1.52939,-2.07394 1.69833,-1.93213 1.13642,0.95399 -16.01481,19.78787 -26.71678,29.33787 -5.34843,4.77273 -13.60416,10.56629 -16.95181,11.89615 -5.24175,2.08229 -9.96353,0.83675 -12.93827,-3.41293 -0.9491,-1.35587 -2.52959,-3.22159 -3.51221,-4.14605 -3.9953,-3.75882 -8.59518,-1.41878 -15.19864,7.73182 -3.95004,5.47369 -6.47633,11.26299 -7.33468,16.80831 -0.65934,4.25969 -1.12455,4.92207 -4.95544,7.05571 -1.96955,1.09695 -7.90587,4.39413 -13.19183,7.32707 -17.36646,9.63583 -24.63224,14.78249 -26.96776,19.10236 -3.69563,6.83559 1.83037,13.4993 13.20754,15.92675 5.33797,1.13892 34.70218,1.13146 44.99543,-0.0114 10.12804,-1.12455 15.07314,-1.94024 22.41364,-3.69709 24.46095,-5.85441 46.17211,-16.75012 56.65588,-28.43265 3.14211,-3.50139 7.11658,-9.78458 7.95285,-12.57256 0.49138,-1.63817 1.63829,-2.91189 6.20983,-6.8964 8.93972,-7.79176 20.50032,-21.43312 23.55049,-27.78926 0.72124,-1.50297 2.70873,-5.15306 4.41665,-8.11133 3.72431,-6.45084 5.6628,-11.45515 6.77137,-17.48063 0.45356,-2.46522 1.54955,-7.00346 2.43555,-10.08498 1.54394,-5.36988 1.59717,-5.88497 1.2807,-12.3917 -0.3793,-7.7985 -0.98418,-9.82124 -3.33383,-11.1484 -0.91306,-0.51572 -5.23793,-1.70567 -9.61083,-2.64432 -7.849,-1.6848 -24.89832,-6.17607 -26.28473,-6.92414 -0.39278,-0.21193 -0.63305,-0.85318 -0.53394,-1.42501 0.29304,-1.69077 2.51055,-1.86381 10.03575,-0.78313 4.4587,0.64031 9.10517,0.97066 13.90457,0.98857 6.37946,0.0238 7.45365,-0.0833 9.34387,-0.93184 5.92835,-2.66123 8.24824,-7.92585 7.22256,-16.39046 -2.17972,-17.98856 -14.90236,-40.32508 -32.8742,-57.71561 -6.19009,-5.98987 -18.16753,-15.67076 -24.95477,-20.16996 -16.99922,-11.26864 -38.36335,-19.52328 -62.03815,-23.97024 -9.85008,-1.85019 -16.66321,-2.5136 -28.63093,-2.78784 -25.4922,-0.58415 -57.63873,4.69753 -78.18334,12.84554 -24.97184,9.90386 -52.8433,31.44406 -72.2176,55.81268 -11.73074,14.75471 -21.88241,35.98038 -29.48029,61.63901 -4.56393,15.41272 -6.03871,24.22786 -6.03653,36.08183 0.002,9.45427 0.64193,15.24951 2.58349,23.38665 1.97179,8.26381 7.64399,21.15996 9.1887,20.89114 0.30381,-0.0529 0.85611,0.55223 1.22732,1.34467 2.73054,5.82893 10.55256,17.64589 13.48649,20.37442 0.59423,0.55263 1.12039,1.46027 1.16924,2.017 0.0489,0.55672 0.33241,1.01222 0.6301,1.01222 0.2977,0 2.07982,1.60947 3.96026,3.5766 1.88045,1.96713 5.77217,5.63078 8.64827,8.14145 2.8761,2.51066 5.0163,4.67534 4.756,4.81039 -1.13881,0.59083 -16.67459,-12.91094 -23.14437,-20.11421 -14.82346,-16.50402 -23.85089,-34.58141 -28.02097,-56.11184 -1.33595,-6.89758 -1.59424,-23.63206 -0.49469,-32.04995 2.13125,-16.31631 6.67857,-30.67623 16.2275,-51.2445 4.83905,-10.42327 6.32675,-14.18686 7.88063,-19.93643 2.90715,-10.75688 0.91134,-22.72181 -5.20325,-31.19364 -4.1672,-5.7737 -19.04085,-19.12303 -28.38111,-25.47249 -10.68802,-7.26566 -23.15714,-11.23364 -36.98323,-11.76898 -10.18343,-0.39429 -17.92923,0.77568 -27.59075,4.16749 -4.49302,1.57733 -8.08322,2.14542 -9.50936,1.5047 -3.02704,-1.35995 0.71598,-10.28761 7.46281,-17.79991 3.51629,-3.91524 11.6292,-10.67391 16.05685,-13.37659 9.68602,-5.91242 21.85086,-10.66026 32.22913,-12.57879 5.12783,-0.94793 16.71777,-0.93074 23.19804,0.0344 2.73366,0.40714 8.07049,1.53933 11.85963,2.51598 3.78913,0.97665 8.40023,2.07694 10.24687,2.44508 8.43996,1.68259 33.90923,3.56365 42.3348,3.12668 2.34931,-0.12184 10.63866,-0.52842 18.42076,-0.90352 7.78211,-0.3751 17.27281,-0.89235 21.09045,-1.14944 3.81763,-0.2571 17.03253,-0.5734 29.36644,-0.70291 20.44444,-0.21467 23.41569,-0.14952 33.63792,0.73755 30.65748,2.6604 59.06495,9.42847 84.62873,20.16274 20.81346,8.7396 35.78875,17.49619 51.4885,30.10717 18.69395,15.01609 31.79583,30.52281 41.89694,49.58708 13.10049,24.72515 17.34934,53.54215 12.06878,81.8541 -3.57219,19.1524 -11.37173,37.24253 -22.40592,51.96793 -17.39426,23.21304 -44.63997,44.66951 -70.56944,55.57464 -18.47112,7.76837 -37.42574,12.57316 -56.79548,14.39702 -7.56887,0.71269 -21.34166,1.1569 -27.2307,0.87827 z M 411.30796,659.46832 c 5.71984,-1.65956 7.62084,-2.88282 24.93255,-16.04364 3.93441,-2.99104 9.54441,-7.03726 12.46666,-8.99159 8.09843,-5.41604 25.15683,-14.68662 31.54152,-17.1416 1.64329,-0.63186 2.80654,-1.37069 2.81133,-1.78561 0.006,-0.54544 0.10935,-0.57386 0.44933,-0.12391 0.34804,0.46064 1.27597,0.30817 4.39679,-0.72241 10.6927,-3.53103 23.68724,-6.54955 32.21083,-7.4823 3.54783,-0.38824 9.09358,-1.02046 12.32389,-1.40493 3.23031,-0.38446 7.31491,-0.79539 9.0769,-0.91317 12.79077,-0.85499 18.31648,-3.79984 18.8549,-10.04848 0.29426,-3.41505 -0.40733,-4.76185 -3.94285,-7.56882 -3.77191,-2.99465 -11.17037,-5.98883 -17.8487,-7.22345 -6.98802,-1.29186 -19.85703,-1.42622 -25.7324,-0.26865 -6.79695,1.33913 -16.82467,5.05192 -30.73125,11.3783 -4.85436,2.20835 -6.08034,2.35355 -1.56639,0.18553 4.92226,-2.36414 5.58016,-3.67469 2.89205,-5.76106 -2.50256,-1.94235 -6.18865,-2.42513 -20.41385,-2.67366 -10.22116,-0.17857 -15.7876,-0.0503 -23.76011,0.54769 -6.28818,0.47162 -16.33276,0.81371 -25.36193,0.86375 -16.29637,0.0903 -17.0291,0.19503 -19.45104,2.77975 -1.34168,1.43186 -2.52025,4.75896 -2.99486,8.45453 -1.14413,8.90863 -3.12283,16.301 -6.08115,22.71895 -2.25784,4.8983 -3.77128,7.26402 -7.24807,11.32973 -2.31256,2.70427 -2.92715,3.73652 -2.53523,4.2581 0.79086,1.05251 1.30032,0.82124 3.47855,-1.57908 6.38988,-7.0414 11.50654,-19.03822 13.56159,-31.79726 0.51618,-3.20479 1.02917,-5.45868 1.13999,-5.00865 0.11081,0.45003 -0.0599,2.44868 -0.37937,4.44143 -0.939,5.85726 -0.70674,12.48946 0.71052,20.28896 0.71674,3.94435 1.58967,9.42439 1.93986,12.17786 0.61979,4.87342 0.59778,5.13433 -0.82943,9.82882 -1.14225,3.75715 -1.39444,5.39832 -1.14159,7.42909 1.0546,8.47014 8.10588,12.50333 17.23096,9.85578 z m -13.15058,-27.18684 c -0.43639,-0.96354 -1.63094,-7.70515 -1.58681,-8.9554 0.009,-0.25299 0.27367,-0.0882 0.58831,0.36617 0.31465,0.45439 1.80903,1.30964 3.32086,1.90057 4.50494,1.76082 7.25665,1.54509 17.69897,-1.3876 0.58733,-0.16495 -1.3524,0.80399 -4.3105,2.15321 -2.95811,1.34922 -7.16285,3.3522 -9.34387,4.45107 -5.39856,2.71998 -5.76352,2.80436 -6.36696,1.47198 z m 59.57286,-8.18277 c 1.76526,-4.19875 1.70344,-6.43705 -0.22792,-8.25161 -1.32314,-1.24313 -1.93471,-1.4533 -4.67193,-1.60555 -3.30129,-0.18363 -4.19332,9e-4 -13.26087,2.74315 -2.91828,0.88256 -5.4211,1.508 -5.56183,1.38987 -0.14072,-0.11814 -0.0349,-0.2148 0.23525,-0.2148 0.27011,0 3.13334,-1.30783 6.36273,-2.90628 3.93088,-1.94568 6.22457,-2.82487 6.93948,-2.65997 0.7607,0.17546 0.86301,0.12688 0.35569,-0.16889 -0.57946,-0.33782 -0.55777,-0.46495 0.11638,-0.68212 0.45571,-0.1468 0.973,-0.0707 1.14953,0.16905 0.17653,0.23978 0.57173,0.30585 0.87823,0.14684 1.35014,-0.70049 8.56427,-1.96806 12.71733,-2.23454 8.44607,-0.54193 12.81444,1.00212 12.81444,4.52939 0,1.13341 -0.49766,1.83634 -2.27233,3.20956 -2.09301,1.61956 -15.82851,9.56139 -16.53655,9.56139 -0.17029,0 0.26277,-1.36147 0.96237,-3.02549 z m -51.83204,-3.8191 c -4.55021,-2.13684 -5.85951,-7.96796 -2.94172,-13.10126 1.24846,-2.19644 1.27768,-2.21431 1.46585,-0.89645 0.72996,5.11224 3.39992,8.37206 7.36913,8.99715 3.24321,0.51076 10.44606,-0.0644 14.12931,-1.12819 6.8499,-1.97842 24.77643,-9.78658 32.27631,-14.05841 6.00237,-3.41887 9.335,-7.25601 9.35892,-10.77573 0.009,-1.3721 -0.36021,-2.03787 -1.80366,-3.2496 -1.81538,-1.52396 -1.81538,-1.52396 1.46833,-1.52131 3.96711,0.003 13.31582,1.13993 14.77819,1.79693 0.57914,0.26019 1.05299,0.66592 1.05299,0.90162 0,0.81654 -3.22156,3.00671 -7.60732,5.17182 -2.42342,1.19638 -5.75643,2.99029 -7.40668,3.98648 -1.65026,0.99619 -3.45229,2.07187 -4.00452,2.39039 -0.94528,0.54524 -0.93374,0.56737 0.1973,0.37813 0.66074,-0.11055 1.20135,-0.13509 1.20135,-0.0545 0,0.39231 -14.40582,8.1039 -20.29397,10.86359 -13.25972,6.21462 -19.64251,8.5663 -28.2678,10.41501 -5.47004,1.17242 -8.29255,1.14267 -10.97201,-0.11563 z m 71.92809,-4.4423 c 0.69761,-1.67991 0.21119,-4.24861 -1.02536,-5.41476 -1.77824,-1.677 -4.2455,-2.19119 -10.44611,-2.17701 -5.86228,0.0134 -5.86228,0.0134 -3.52604,-1.23738 1.28493,-0.68793 4.13827,-2.45652 6.34075,-3.93019 2.20248,-1.47368 5.06172,-3.32223 6.35385,-4.1079 1.29213,-0.78566 2.14723,-1.42848 1.90021,-1.42848 -0.24702,0 0.0166,-0.28588 0.58579,-0.63527 0.74137,-0.45508 1.22813,-0.50067 1.71608,-0.16072 0.5173,0.3604 0.60025,0.29758 0.34484,-0.26117 -0.22889,-0.50072 -0.0522,-0.73573 0.55322,-0.73573 0.53643,0 0.73831,-0.20542 0.50857,-0.51747 -0.23605,-0.32062 -0.14647,-0.39581 0.23545,-0.19766 0.33904,0.1759 0.61644,0.15473 0.61644,-0.047 0,-0.20177 0.50323,-0.63068 1.1183,-0.95314 0.8991,-0.47135 0.78701,-0.18205 -0.57183,1.4759 -3.00391,3.66514 -3.93472,5.95471 -3.92401,9.65206 0.008,2.6259 0.31985,3.97184 1.42667,6.14954 1.92056,3.7788 1.84916,4.32927 -0.66928,5.15973 -2.08621,0.68793 -2.08621,0.68793 -1.53754,-0.63331 z m 39.561,-15.20487 c -2.46253,-0.59796 -5.27601,-3.02335 -6.0621,-5.22589 -1.86388,-5.2224 3.89382,-10.1062 12.62826,-10.71153 6.13004,-0.42484 10.56967,1.15018 12.87546,4.56772 3.20919,4.75654 -0.20321,9.95157 -7.46047,11.35783 -3.07317,0.5955 -9.55126,0.60192 -11.98115,0.0119 z m -152.2513,21.89527 c 6.32145,-4.48383 11.70207,-15.68535 13.51094,-28.12745 1.56968,-10.79685 2.46198,-12.69465 6.9737,-14.83216 1.60857,-0.76208 2.92468,-1.55203 2.92468,-1.75543 0,-0.59169 -3.17539,-1.04082 -7.10296,-1.00465 -4.55956,0.042 -8.22803,1.4511 -12.54457,4.81858 -6.47474,5.05115 -8.64537,10.26575 -8.66031,20.80507 -0.01,7.00459 -0.77464,11.21277 -2.62035,14.41968 -1.10715,1.92367 -1.10715,1.92367 0.0938,3.02146 1.28372,1.17343 5.15418,3.66709 5.68604,3.66339 0.17618,-10e-4 0.95874,-0.45504 1.73901,-1.00849 z m 173.44512,252.61261 c -4.22898,-0.55913 -9.10559,-1.6189 -9.42102,-2.04734 -0.23571,-0.32017 -0.0503,-0.39439 0.5235,-0.20955 0.48867,0.15741 0.88849,0.11242 0.88849,-0.1 0,-0.21241 -0.39479,-0.51338 -0.87732,-0.66881 -0.48253,-0.15544 -0.76855,-0.37394 -0.63559,-0.48554 0.13295,-0.11161 1.47361,0.19001 2.97924,0.67026 8.06388,2.57216 29.45103,2.29033 52.99507,-0.69835 12.79382,-1.62404 25.63232,-5.01375 35.6201,-9.40466 18.37429,-8.07786 25.72083,-13.79809 29.04481,-22.61517 1.50932,-4.00355 1.5208,-9.74477 0.0253,-12.63664 -3.27692,-6.33653 -13.5807,-10.14914 -25.97989,-9.61308 -14.76263,0.63824 -29.26751,4.53771 -49.92294,13.42121 -11.69569,5.03009 -18.06709,8.26427 -28.8325,14.63563 -2.78982,1.65111 -5.63989,3.02612 -6.33349,3.05558 -0.69361,0.0295 -1.71476,0.39821 -2.26923,0.81945 -0.55446,0.42123 -1.00812,0.65051 -1.00812,0.5095 0,-0.40619 8.2578,-5.67043 14.68322,-9.36037 9.14429,-5.25131 15.21295,-8.18594 33.90489,-16.39542 9.54409,-4.19175 20.11601,-8.8496 23.49315,-10.35077 11.47406,-5.10032 22.69304,-7.51337 31.50218,-6.77569 9.72547,0.81442 19.08504,6.10297 21.87354,12.35946 1.55642,3.4921 1.48341,9.24689 -0.1671,13.17135 -1.78596,4.24654 -5.02617,8.6442 -9.58175,13.00449 -7.69591,7.36599 -15.23088,11.96202 -29.3664,17.9123 -15.56632,6.55258 -32.07036,10.18017 -52.97078,11.64302 -6.07291,0.42504 -27.30882,0.53706 -30.16734,0.15913 z M 402.15368,819.53221 c -4.21668,-1.27256 -7.73504,-3.19297 -11.27012,-6.15149 -3.98169,-3.33228 -5.80613,-6.2454 -7.4324,-11.86744 -2.14551,-7.41703 -2.65094,-12.08303 -2.60092,-24.01078 0.0391,-9.32016 0.28381,-12.75155 1.45444,-20.39408 2.34842,-15.3317 3.92213,-20.9513 10.3057,-36.8008 6.38986,-15.86512 12.51838,-27.13738 21.29748,-39.17273 13.99063,-19.17989 33.19942,-35.95286 55.52864,-48.48721 24.13593,-13.54853 53.45402,-21.63077 82.75996,-22.81479 26.9902,-1.09045 60.13986,6.38197 85.72865,19.32451 17.78157,8.99374 37.19346,23.99722 48.11241,37.18618 11.59767,14.00877 21.08132,35.55212 20.00397,45.44159 -0.5749,5.27718 -4.02447,9.13524 -8.69355,9.72301 -7.72786,0.97283 -35.8119,-3.59932 -74.40506,-12.11332 -24.08594,-5.31358 -36.22234,-6.79905 -52.05869,-6.37189 -26.48515,0.71441 -47.63155,7.696 -67.80977,22.38774 -17.75064,12.92423 -31.30485,25.55212 -41.64148,38.79564 -3.61827,4.6358 -8.80346,13.28611 -8.83044,14.73157 -0.008,0.44313 -0.56179,-0.10196 -1.23004,-1.21131 -2.9582,-4.91085 -9.9486,-4.77966 -15.26068,0.28639 -5.45733,5.20458 -7.96907,13.13093 -8.92294,28.15828 -0.20282,3.19521 -0.63118,6.09757 -0.9519,6.44968 -2.50521,2.75038 -7.09727,5.64351 -10.53624,6.63813 -3.7464,1.08354 -10.41611,1.218 -13.54702,0.27312 z m 13.70529,-5.12631 c 1.66078,-0.64975 3.99297,-2.02335 5.18264,-3.05242 4.17742,-3.61354 5.17106,-7.77061 5.94845,-24.88655 0.27992,-6.16305 0.65132,-12.21404 0.82533,-13.44665 1.42901,-10.12234 5.15559,-24.30312 8.5562,-32.55893 2.4638,-5.98149 7.3681,-14.73664 7.62575,-13.6135 0.30733,1.33965 1.41023,2.0688 2.16836,1.43353 0.37023,-0.31023 0.28926,0.16224 -0.1945,1.13497 -1.03948,2.09014 -1.06071,3.48811 -0.053,3.48811 1.91183,0 3.86126,-1.41132 9.44981,-6.84131 8.23729,-8.00359 16.18269,-13.85463 27.68382,-20.38652 17.96899,-10.20521 42.04674,-19.63662 59.58655,-23.34043 9.24417,-1.95206 14.34762,-2.48694 23.44038,-2.45674 17.77225,0.059 35.23701,4.92651 62.47042,17.41066 11.17558,5.12303 37.77065,13.64666 53.39353,17.11244 7.14076,1.5841 15.41356,1.73219 17.71316,0.31707 2.37043,-1.45871 3.37551,-3.57547 3.37645,-7.11104 0.002,-6.01692 -2.2923,-11.28276 -8.89656,-20.42271 -13.6481,-18.88828 -15.67015,-21.47501 -21.77091,-27.85057 -18.37067,-19.19817 -37.16304,-27.39108 -71.84727,-31.32323 -38.80097,-4.39887 -77.16851,2.72067 -105.98615,19.66696 -11.275,6.6303 -27.53383,19.2926 -35.47653,27.62897 -10.20523,10.71103 -20.58005,26.82383 -25.55436,39.68766 -2.88001,7.44786 -4.09318,11.56625 -5.68173,19.28813 -2.03649,9.89925 -2.47232,14.59891 -2.89459,31.21303 -0.21438,8.43471 -0.5584,15.47739 -0.76449,15.6504 -0.2061,0.173 -0.37472,-2.24826 -0.37472,-5.38058 0,-6.83964 -0.60745,-11.82724 -2.70915,-22.244 -1.97637,-9.79559 -2.75375,-12.37253 -4.8387,-16.03984 -2.27843,-4.00765 -5.44532,-6.57743 -9.24994,-7.50591 -3.77178,-0.92046 -6.37302,-0.58431 -9.67159,1.24983 -5.61237,3.1207 -9.1399,10.71753 -11.49766,24.76114 -0.81289,4.84188 -1.23136,4.17068 -0.55889,-0.89645 0.26173,-1.97217 0.29626,-3.87014 0.0767,-4.21772 -0.71519,-1.13238 -1.56016,0.98283 -1.89235,4.7371 -0.17104,1.93304 -0.53452,5.63246 -0.80774,8.22094 -0.66253,6.27664 -0.63241,20.38571 0.0536,25.11216 1.08817,7.49725 4.95579,15.89841 9.45043,20.52803 2.08588,2.14852 6.44418,4.75245 9.58083,5.72419 3.35947,1.04078 10.47482,0.64309 14.13836,-0.79022 z M 650.70751,683.29066 c -5.69407,-0.79925 -12.57269,-3.89303 -16.2117,-7.2915 -6.34718,-5.92763 -6.05569,-14.93403 0.51685,-15.96911 4.36272,-0.68706 15.54377,2.82491 21.49993,6.75314 5.67198,3.7408 8.2298,7.13677 8.27763,10.99004 0.0402,3.24151 -1.08706,4.67284 -4.19818,5.33047 -2.27088,0.48002 -7.14049,0.57213 -9.88453,0.18696 z m -46.9863,-38.94403 c -4.11358,-0.90692 -10.41836,-3.58066 -11.72071,-4.97054 -1.17165,-1.2504 -1.38729,-2.65185 -0.57418,-3.7315 0.7506,-0.99663 7.9451,-1.15093 12.46242,-0.26727 4.47121,0.87463 8.90013,2.65153 10.83532,4.34718 1.74388,1.52801 1.9668,3.79702 0.4637,4.71967 -1.30639,0.80191 -7.63086,0.7481 -11.46655,-0.0975 z M 453.44854,768.30191 c 2.05267,-0.65058 4.57485,-2.80042 7.29329,-6.21659 1.49161,-1.87447 4.3099,-4.92087 6.26285,-6.76978 1.95296,-1.84892 5.83986,-5.68121 8.63756,-8.51621 2.79769,-2.835 8.79295,-8.44376 13.3228,-12.46392 13.89675,-12.33308 16.56033,-15.44613 17.64698,-20.62484 1.0613,-5.05785 -0.81517,-7.88157 -5.56892,-8.38017 -11.78833,-1.23641 -29.69686,7.56372 -42.88796,21.07485 -6.56373,6.72298 -13.60906,18.47211 -15.93829,26.57947 -2.0713,7.20956 -0.22993,14.4095 4.00255,15.65033 1.80278,0.52851 4.97117,0.38251 7.22914,-0.33314 z m 220.48516,3.89884 c -5.20194,-1.71216 -8.85728,-4.80893 -10.17799,-8.6227 -2.18161,-6.29978 1.382,-10.13542 8.71641,-9.38177 5.43401,0.55837 12.7258,4.49357 14.94731,8.06669 0.47655,0.76649 0.8372,2.46021 0.83877,3.9391 0.003,3.0046 -1.06359,4.57317 -3.95072,5.80902 -2.12886,0.91127 -7.86287,1.0161 -10.37378,0.18966 z m -41.26262,-9.97263 c -3.42845,-1.43421 -5.13444,-3.0952 -7.41333,-7.2178 -2.56313,-4.63682 -3.5583,-8.6111 -3.19333,-12.7529 0.68758,-7.80302 5.40289,-12.93873 11.87958,-12.93873 7.24121,0 12.19102,6.55445 12.86258,17.03242 0.4951,7.72475 -1.79611,13.13198 -6.66212,15.72253 -3.01538,1.60531 -3.95858,1.6248 -7.47338,0.15448 z m 8.02515,-12.27064 c 1.29703,-1.21849 1.46832,-1.7353 1.46832,-4.43004 0,-3.98705 -1.19667,-6.85285 -3.60179,-8.62557 -1.7129,-1.26252 -2.17954,-1.38648 -4.51115,-1.19841 -5.42642,0.43771 -8.07295,4.85766 -6.24127,10.42354 0.65417,1.9878 3.97,4.95682 5.92553,5.30576 2.79401,0.49856 5.46101,-0.0667 6.96036,-1.47528 z m 54.06094,-3.32487 c -2.14534,-0.80541 -7.06048,-4.56856 -8.03644,-6.15289 -0.75764,-1.22992 -0.73092,-1.29561 0.79658,-1.95871 2.10326,-0.91304 3.69321,-0.86513 7.13189,0.21491 3.39497,1.06631 5.11246,2.46166 5.69393,4.62594 0.85349,3.17678 -1.76006,4.70709 -5.58596,3.27075 z"
         id="path4" />
    </g>
  </g>
</svg>
